<?xml version="1.0" encoding="utf-8"?>
<svg viewBox="0 0 500 670" xmlns="http://www.w3.org/2000/svg">
  <defs/>
  <ellipse style="stroke: rgb(0, 0, 0); fill: rgb(255, 255, 255); stroke-width: 0px;" cx="250" cy="335" rx="241.263" ry="241.263" transform="matrix(0.9999999999999999, 0, 0, 0.9999999999999999, 0, -1.4210854715202004e-14)"/>
  <path d="M 28.49 371.42 L 28.49 404.66 L 8.21 404.66 L 8.21 371.42 L -23.47 317.24 L -5.59 317.24 Q -2.95 317.24 -1.39 318.47 Q 0.17 319.7 1.13 321.62 L 13.49 347.06 Q 14.99 350.12 16.25 352.7 Q 17.51 355.28 18.47 357.8 Q 19.37 355.22 20.63 352.64 Q 21.89 350.06 23.33 347.06 L 35.57 321.62 Q 35.93 320.84 36.56 320.06 Q 37.19 319.28 38 318.65 Q 38.81 318.02 39.86 317.63 Q 40.91 317.24 42.17 317.24 L 60.17 317.24 Z M 96.77 404.66 Q 94.13 404.66 92.78 403.94 Q 91.43 403.22 90.53 400.94 L 89.21 397.52 Q 86.87 399.5 84.71 401 Q 82.55 402.5 80.24 403.55 Q 77.93 404.6 75.32 405.11 Q 72.71 405.62 69.53 405.62 Q 65.27 405.62 61.79 404.51 Q 58.31 403.4 55.88 401.24 Q 53.45 399.08 52.13 395.87 Q 50.81 392.66 50.81 388.46 Q 50.81 385.16 52.49 381.68 Q 54.17 378.2 58.31 375.35 Q 62.45 372.5 69.47 370.58 Q 76.49 368.66 87.17 368.42 L 87.17 365.78 Q 87.17 360.32 84.92 357.89 Q 82.67 355.46 78.53 355.46 Q 75.23 355.46 73.13 356.18 Q 71.03 356.9 69.38 357.8 Q 67.73 358.7 66.17 359.42 Q 64.61 360.14 62.45 360.14 Q 60.53 360.14 59.18 359.21 Q 57.83 358.28 57.05 356.9 L 53.69 351.08 Q 59.33 346.1 66.2 343.67 Q 73.07 341.24 80.93 341.24 Q 86.57 341.24 91.1 343.07 Q 95.63 344.9 98.78 348.17 Q 101.93 351.44 103.61 355.94 Q 105.29 360.44 105.29 365.78 L 105.29 404.66 Z M 75.41 393.32 Q 79.01 393.32 81.71 392.06 Q 84.41 390.8 87.17 387.98 L 87.17 379.34 Q 81.59 379.58 77.99 380.3 Q 74.39 381.02 72.29 382.1 Q 70.19 383.18 69.38 384.56 Q 68.57 385.94 68.57 387.56 Q 68.57 390.74 70.31 392.03 Q 72.05 393.32 75.41 393.32 Z M 135.02 314.84 L 135.02 365.18 L 137.78 365.18 Q 139.52 365.18 140.45 364.7 Q 141.38 364.22 142.22 362.96 L 153.98 345.44 Q 155 343.88 156.41 343.16 Q 157.82 342.44 159.98 342.44 L 177.02 342.44 L 160.94 364.58 Q 159.8 366.14 158.45 367.34 Q 157.1 368.54 155.54 369.5 Q 158.24 371.54 160.22 374.9 L 177.74 404.66 L 160.94 404.66 Q 158.84 404.66 157.31 403.97 Q 155.78 403.28 154.82 401.54 L 143.06 379.52 Q 142.22 378.02 141.32 377.57 Q 140.42 377.12 138.62 377.12 L 135.02 377.12 L 135.02 404.66 L 116.42 404.66 L 116.42 314.84 Z" transform="matrix(1, 0, 0, 1, 172.086001, -143.050875)" style="fill: rgb(51, 51, 51);"/>
  <path transform="matrix(1, 0, 0, 1, 172.086001, -143.050875)" style="fill: rgb(51, 51, 51);"/>
  <path d="M -75.93 455 Q -76.83 456.44 -77.82 457.16 Q -78.81 457.88 -80.37 457.88 Q -81.75 457.88 -83.34 457.01 Q -84.93 456.14 -86.94 455.06 Q -88.95 453.98 -91.53 453.11 Q -94.11 452.24 -97.41 452.24 Q -103.11 452.24 -105.9 454.67 Q -108.69 457.1 -108.69 461.24 Q -108.69 463.88 -107.01 465.62 Q -105.33 467.36 -102.6 468.62 Q -99.87 469.88 -96.36 470.93 Q -92.85 471.98 -89.19 473.27 Q -85.53 474.56 -82.02 476.3 Q -78.51 478.04 -75.78 480.74 Q -73.05 483.44 -71.37 487.31 Q -69.69 491.18 -69.69 496.64 Q -69.69 502.7 -71.79 507.98 Q -73.89 513.26 -77.88 517.19 Q -81.87 521.12 -87.72 523.37 Q -93.57 525.62 -101.01 525.62 Q -105.09 525.62 -109.32 524.78 Q -113.55 523.94 -117.51 522.41 Q -121.47 520.88 -124.95 518.78 Q -128.43 516.68 -131.01 514.1 L -125.01 504.62 Q -124.35 503.54 -123.15 502.88 Q -121.95 502.22 -120.57 502.22 Q -118.77 502.22 -116.94 503.36 Q -115.11 504.5 -112.8 505.88 Q -110.49 507.26 -107.49 508.4 Q -104.49 509.54 -100.41 509.54 Q -94.89 509.54 -91.83 507.11 Q -88.77 504.68 -88.77 499.4 Q -88.77 496.34 -90.45 494.42 Q -92.13 492.5 -94.86 491.24 Q -97.59 489.98 -101.07 489.02 Q -104.55 488.06 -108.21 486.89 Q -111.87 485.72 -115.35 484.01 Q -118.83 482.3 -121.56 479.51 Q -124.29 476.72 -125.97 472.55 Q -127.65 468.38 -127.65 462.26 Q -127.65 457.34 -125.67 452.66 Q -123.69 447.98 -119.85 444.32 Q -116.01 440.66 -110.43 438.47 Q -104.85 436.28 -97.65 436.28 Q -93.63 436.28 -89.82 436.91 Q -86.01 437.54 -82.59 438.77 Q -79.17 440 -76.2 441.71 Q -73.23 443.42 -70.89 445.58 Z M -62.04 524.66 L -62.04 434.84 L -43.44 434.84 L -43.44 467.9 Q -40.08 465.02 -36.15 463.25 Q -32.22 461.48 -26.76 461.48 Q -21.66 461.48 -17.73 463.25 Q -13.8 465.02 -11.1 468.17 Q -8.4 471.32 -7.02 475.67 Q -5.64 480.02 -5.64 485.12 L -5.64 524.66 L -24.24 524.66 L -24.24 485.12 Q -24.24 480.56 -26.34 478.01 Q -28.44 475.46 -32.52 475.46 Q -35.58 475.46 -38.28 476.78 Q -40.98 478.1 -43.44 480.32 L -43.44 524.66 Z M 43.54 524.66 Q 40.9 524.66 39.55 523.94 Q 38.2 523.22 37.3 520.94 L 35.98 517.52 Q 33.64 519.5 31.48 521 Q 29.32 522.5 27.01 523.55 Q 24.7 524.6 22.09 525.11 Q 19.48 525.62 16.3 525.62 Q 12.04 525.62 8.56 524.51 Q 5.08 523.4 2.65 521.24 Q 0.22 519.08 -1.1 515.87 Q -2.42 512.66 -2.42 508.46 Q -2.42 505.16 -0.74 501.68 Q 0.94 498.2 5.08 495.35 Q 9.22 492.5 16.24 490.58 Q 23.26 488.66 33.94 488.42 L 33.94 485.78 Q 33.94 480.32 31.69 477.89 Q 29.44 475.46 25.3 475.46 Q 22 475.46 19.9 476.18 Q 17.8 476.9 16.15 477.8 Q 14.5 478.7 12.94 479.42 Q 11.38 480.14 9.22 480.14 Q 7.3 480.14 5.95 479.21 Q 4.6 478.28 3.82 476.9 L 0.46 471.08 Q 6.1 466.1 12.97 463.67 Q 19.84 461.24 27.7 461.24 Q 33.34 461.24 37.87 463.07 Q 42.4 464.9 45.55 468.17 Q 48.7 471.44 50.38 475.94 Q 52.06 480.44 52.06 485.78 L 52.06 524.66 Z M 22.18 513.32 Q 25.78 513.32 28.48 512.06 Q 31.18 510.8 33.94 507.98 L 33.94 499.34 Q 28.36 499.58 24.76 500.3 Q 21.16 501.02 19.06 502.1 Q 16.96 503.18 16.15 504.56 Q 15.34 505.94 15.34 507.56 Q 15.34 510.74 17.08 512.03 Q 18.82 513.32 22.18 513.32 Z M 97.64 524.66 L 80.72 524.66 L 56.6 462.44 L 72.08 462.44 Q 74.06 462.44 75.41 463.37 Q 76.76 464.3 77.24 465.68 L 85.88 493.58 Q 86.9 497 87.83 500.24 Q 88.76 503.48 89.42 506.72 Q 90.08 503.48 91.04 500.24 Q 92 497 93.08 493.58 L 102.08 465.68 Q 102.56 464.3 103.88 463.37 Q 105.2 462.44 107 462.44 L 121.76 462.44 Z M 145.01 462.44 L 145.01 524.66 L 126.41 524.66 L 126.41 462.44 Z M 147.17 445.4 Q 147.17 447.62 146.27 449.57 Q 145.37 451.52 143.81 452.99 Q 142.25 454.46 140.18 455.33 Q 138.11 456.2 135.77 456.2 Q 133.49 456.2 131.51 455.33 Q 129.53 454.46 128 452.99 Q 126.47 451.52 125.6 449.57 Q 124.73 447.62 124.73 445.4 Q 124.73 443.12 125.6 441.14 Q 126.47 439.16 128 437.66 Q 129.53 436.16 131.51 435.32 Q 133.49 434.48 135.77 434.48 Q 138.11 434.48 140.18 435.32 Q 142.25 436.16 143.81 437.66 Q 145.37 439.16 146.27 441.14 Q 147.17 443.12 147.17 445.4 Z M 163.39 524.66 L 163.39 462.44 L 174.91 462.44 Q 176.65 462.44 177.82 463.22 Q 178.99 464 179.47 465.56 L 180.55 469.16 Q 182.35 467.48 184.27 466.04 Q 186.19 464.6 188.38 463.61 Q 190.57 462.62 193.12 462.05 Q 195.67 461.48 198.67 461.48 Q 203.77 461.48 207.7 463.25 Q 211.63 465.02 214.33 468.17 Q 217.03 471.32 218.41 475.67 Q 219.79 480.02 219.79 485.12 L 219.79 524.66 L 201.19 524.66 L 201.19 485.12 Q 201.19 480.56 199.09 478.01 Q 196.99 475.46 192.91 475.46 Q 189.85 475.46 187.15 476.78 Q 184.45 478.1 181.99 480.32 L 181.99 524.66 Z M 247.96 461.36 Q 251.92 461.36 255.43 462.14 Q 258.94 462.92 261.94 464.36 L 280.72 464.36 L 280.72 471.14 Q 280.72 472.7 279.85 473.6 Q 278.98 474.5 276.88 474.98 L 272.32 476 Q 273.16 478.7 273.16 481.58 Q 273.16 486.26 271.21 489.98 Q 269.26 493.7 265.87 496.31 Q 262.48 498.92 257.86 500.33 Q 253.24 501.74 247.96 501.74 Q 245.02 501.74 242.44 501.38 Q 240.4 502.58 240.4 504.14 Q 240.4 505.7 242.05 506.39 Q 243.7 507.08 246.4 507.35 Q 249.1 507.62 252.58 507.71 Q 256.06 507.8 259.66 508.13 Q 263.26 508.46 266.74 509.24 Q 270.22 510.02 272.92 511.76 Q 275.62 513.5 277.27 516.41 Q 278.92 519.32 278.92 523.82 Q 278.92 528.02 276.88 532.04 Q 274.84 536.06 270.88 539.18 Q 266.92 542.3 261.16 544.19 Q 255.4 546.08 247.96 546.08 Q 240.64 546.08 235.33 544.7 Q 230.02 543.32 226.51 541.07 Q 223 538.82 221.32 535.88 Q 219.64 532.94 219.64 529.76 Q 219.64 525.62 222.16 522.77 Q 224.68 519.92 229.06 518.3 Q 226.96 516.92 225.7 514.76 Q 224.44 512.6 224.44 509.3 Q 224.44 507.92 224.92 506.39 Q 225.4 504.86 226.42 503.42 Q 227.44 501.98 229 500.66 Q 230.56 499.34 232.72 498.32 Q 227.86 495.74 225.07 491.48 Q 222.28 487.22 222.28 481.58 Q 222.28 476.9 224.26 473.15 Q 226.24 469.4 229.69 466.79 Q 233.14 464.18 237.82 462.77 Q 242.5 461.36 247.96 461.36 Z M 261.76 526.94 Q 261.76 525.44 260.83 524.54 Q 259.9 523.64 258.31 523.1 Q 256.72 522.56 254.59 522.32 Q 252.46 522.08 250 521.96 Q 247.54 521.84 244.9 521.75 Q 242.26 521.66 239.68 521.36 Q 237.94 522.56 236.83 524.03 Q 235.72 525.5 235.72 527.36 Q 235.72 528.68 236.29 529.76 Q 236.86 530.84 238.3 531.62 Q 239.74 532.4 242.17 532.85 Q 244.6 533.3 248.32 533.3 Q 252.34 533.3 254.92 532.82 Q 257.5 532.34 259.03 531.5 Q 260.56 530.66 261.16 529.49 Q 261.76 528.32 261.76 526.94 Z M 247.96 490.28 Q 252.58 490.28 254.65 487.97 Q 256.72 485.66 256.72 482 Q 256.72 478.22 254.65 476.06 Q 252.58 473.9 247.96 473.9 Q 243.34 473.9 241.27 476.06 Q 239.2 478.22 239.2 482 Q 239.2 483.8 239.71 485.3 Q 240.22 486.8 241.3 487.91 Q 242.38 489.02 244.03 489.65 Q 245.68 490.28 247.96 490.28 Z" transform="matrix(1, 0, 0, 1, 172.086001, -143.050875)" style="fill: rgb(51, 51, 51);"/>
  <path transform="matrix(1, 0, 0, 1, 172.086001, -143.050875)" style="fill: rgb(51, 51, 51);"/>
  <path d="M 32.94 600.92 Q 32.94 610.4 29.67 618.41 Q 26.4 626.42 20.46 632.27 Q 14.52 638.12 6.15 641.39 Q -2.22 644.66 -12.42 644.66 L -46.38 644.66 L -46.38 557.24 L -12.42 557.24 Q -2.22 557.24 6.15 560.54 Q 14.52 563.84 20.46 569.66 Q 26.4 575.48 29.67 583.49 Q 32.94 591.5 32.94 600.92 Z M 12.18 600.92 Q 12.18 594.44 10.5 589.22 Q 8.82 584 5.67 580.37 Q 2.52 576.74 -2.04 574.79 Q -6.6 572.84 -12.42 572.84 L -25.98 572.84 L -25.98 629.06 L -12.42 629.06 Q -6.6 629.06 -2.04 627.11 Q 2.52 625.16 5.67 621.53 Q 8.82 617.9 10.5 612.68 Q 12.18 607.46 12.18 600.92 Z M 61.66 581.48 Q 67.84 581.48 72.97 583.4 Q 78.1 585.32 81.79 588.98 Q 85.48 592.64 87.55 597.95 Q 89.62 603.26 89.62 609.98 Q 89.62 612.08 89.44 613.4 Q 89.26 614.72 88.78 615.5 Q 88.3 616.28 87.49 616.58 Q 86.68 616.88 85.42 616.88 L 49.54 616.88 Q 50.44 624.68 54.28 628.19 Q 58.12 631.7 64.18 631.7 Q 67.42 631.7 69.76 630.92 Q 72.1 630.14 73.93 629.18 Q 75.76 628.22 77.29 627.44 Q 78.82 626.66 80.5 626.66 Q 82.72 626.66 83.86 628.28 L 89.26 634.94 Q 86.38 638.24 83.05 640.31 Q 79.72 642.38 76.21 643.55 Q 72.7 644.72 69.19 645.17 Q 65.68 645.62 62.5 645.62 Q 55.96 645.62 50.23 643.49 Q 44.5 641.36 40.21 637.16 Q 35.92 632.96 33.43 626.72 Q 30.94 620.48 30.94 612.2 Q 30.94 605.96 33.07 600.38 Q 35.2 594.8 39.19 590.6 Q 43.18 586.4 48.85 583.94 Q 54.52 581.48 61.66 581.48 Z M 62.02 594.32 Q 56.68 594.32 53.68 597.35 Q 50.68 600.38 49.72 606.08 L 72.94 606.08 Q 72.94 603.86 72.37 601.76 Q 71.8 599.66 70.51 598.01 Q 69.22 596.36 67.12 595.34 Q 65.02 594.32 62.02 594.32 Z M 132.08 644.66 L 115.16 644.66 L 91.04 582.44 L 106.52 582.44 Q 108.5 582.44 109.85 583.37 Q 111.2 584.3 111.68 585.68 L 120.32 613.58 Q 121.34 617 122.27 620.24 Q 123.2 623.48 123.86 626.72 Q 124.52 623.48 125.48 620.24 Q 126.44 617 127.52 613.58 L 136.52 585.68 Q 137 584.3 138.32 583.37 Q 139.64 582.44 141.44 582.44 L 156.2 582.44 Z M 198.29 596.06 Q 197.57 597.2 196.76 597.68 Q 195.95 598.16 194.69 598.16 Q 193.37 598.16 192.05 597.59 Q 190.73 597.02 189.2 596.36 Q 187.67 595.7 185.75 595.13 Q 183.83 594.56 181.37 594.56 Q 177.83 594.56 175.94 595.91 Q 174.05 597.26 174.05 599.66 Q 174.05 601.4 175.28 602.54 Q 176.51 603.68 178.55 604.55 Q 180.59 605.42 183.17 606.2 Q 185.75 606.98 188.45 607.94 Q 191.15 608.9 193.73 610.19 Q 196.31 611.48 198.35 613.37 Q 200.39 615.26 201.62 617.96 Q 202.85 620.66 202.85 624.44 Q 202.85 629.06 201.17 632.96 Q 199.49 636.86 196.16 639.68 Q 192.83 642.5 187.94 644.06 Q 183.05 645.62 176.69 645.62 Q 173.51 645.62 170.33 645.02 Q 167.15 644.42 164.18 643.4 Q 161.21 642.38 158.69 640.97 Q 156.17 639.56 154.37 637.94 L 158.69 631.1 Q 159.47 629.9 160.55 629.21 Q 161.63 628.52 163.37 628.52 Q 164.99 628.52 166.28 629.24 Q 167.57 629.96 169.07 630.8 Q 170.57 631.64 172.58 632.36 Q 174.59 633.08 177.65 633.08 Q 179.81 633.08 181.31 632.63 Q 182.81 632.18 183.71 631.4 Q 184.61 630.62 185.03 629.66 Q 185.45 628.7 185.45 627.68 Q 185.45 625.82 184.19 624.62 Q 182.93 623.42 180.89 622.55 Q 178.85 621.68 176.24 620.93 Q 173.63 620.18 170.93 619.22 Q 168.23 618.26 165.62 616.91 Q 163.01 615.56 160.97 613.49 Q 158.93 611.42 157.67 608.42 Q 156.41 605.42 156.41 601.16 Q 156.41 597.2 157.94 593.63 Q 159.47 590.06 162.53 587.36 Q 165.59 584.66 170.21 583.07 Q 174.83 581.48 181.01 581.48 Q 184.37 581.48 187.52 582.08 Q 190.67 582.68 193.43 583.76 Q 196.19 584.84 198.47 586.31 Q 200.75 587.78 202.49 589.52 Z" transform="matrix(1, 0, 0, 1, 172.086001, -143.050875)" style="fill: rgb(51, 51, 51);"/>
</svg>